<svg xmlns="http://www.w3.org/2000/svg" version="1.1" xmlns:xlink="http://www.w3.org/1999/xlink" xmlns:svgjs="http://svgjs.dev/svgjs" viewBox="0 0 16.24616141106259 3.9455283048218814"><g transform="matrix(1,0,0,1,0.6334375519016398,0.7537395029202418)"><rect width="16.24616141106259" height="3.9455283048218814" x="-0.6334375519016398" y="-0.7537395029202418" fill="#343432"></rect><g><path d=" M 0.1655775 1.1874749999999996 Q 0.14718 1.1874749999999996 0.1354725 1.1757674999999996 Q 0.123765 1.1640599999999997 0.123765 1.1456624999999996 L 0.123765 0.05853749999999969 Q 0.123765 0.04013999999999962 0.1354725 0.02843249999999964 Q 0.14718 0.016724999999999657 0.1655775 0.016724999999999657 L 0.9232199999999999 0.016724999999999657 Q 0.9416175 0.016724999999999657 0.953325 0.02843249999999964 Q 0.9650325 0.04013999999999962 0.9650325 0.05853749999999969 L 0.9650325 0.1923374999999996 Q 0.9650325 0.2090624999999996 0.953325 0.2207699999999997 Q 0.9416175 0.23247749999999967 0.9232199999999999 0.23247749999999967 L 0.38133 0.23247749999999967 L 0.38133 0.4950599999999996 L 0.886425 0.4950599999999996 Q 0.9048225 0.4950599999999996 0.91653 0.5067674999999996 Q 0.9282374999999999 0.5184749999999997 0.9282374999999999 0.5368724999999996 L 0.9282374999999999 0.6606374999999997 Q 0.9282374999999999 0.6773624999999996 0.91653 0.6890699999999996 Q 0.9048225 0.7007774999999996 0.886425 0.7007774999999996 L 0.38133 0.7007774999999996 L 0.38133 0.9717224999999996 L 0.9366 0.9717224999999996 Q 0.9549974999999999 0.9717224999999996 0.9667049999999999 0.9834299999999996 Q 0.9784125 0.9951374999999996 0.9784125 1.0135349999999996 L 0.9784125 1.1456624999999996 Q 0.9784125 1.1640599999999997 0.9667049999999999 1.1757674999999996 Q 0.9549974999999999 1.1874749999999996 0.9366 1.1874749999999996 L 0.1655775 1.1874749999999996 Z M 1.5235454187011719 1.1874749999999996 Q 1.4967854187011718 1.1874749999999996 1.4808966687011718 1.1732587499999996 Q 1.4650079187011718 1.1590424999999995 1.4583179187011717 1.1389724999999997 L 1.1070929187011718 0.06689999999999974 Q 1.1054204187011718 0.05853749999999969 1.1054204187011718 0.0518474999999996 Q 1.1054204187011718 0.038467499999999655 1.1154554187011718 0.027596249999999545 Q 1.1254904187011718 0.016724999999999657 1.1405429187011717 0.016724999999999657 L 1.3161554187011717 0.016724999999999657 Q 1.3412429187011718 0.016724999999999657 1.355459168701172 0.030941249999999698 Q 1.369675418701172 0.04515749999999974 1.3730204187011719 0.05686499999999972 L 1.6339304187011718 0.8747174999999996 L 1.8931679187011716 0.05686499999999972 Q 1.8981854187011717 0.04515749999999974 1.911565418701172 0.030941249999999698 Q 1.9249454187011716 0.016724999999999657 1.9500329187011718 0.016724999999999657 L 2.125645418701172 0.016724999999999657 Q 2.140697918701172 0.016724999999999657 2.1507329187011717 0.027596249999999545 Q 2.160767918701172 0.038467499999999655 2.160767918701172 0.0518474999999996 Q 2.160767918701172 0.05853749999999969 2.1590954187011717 0.06689999999999974 L 1.8078704187011718 1.1389724999999997 Q 1.8028529187011717 1.1590424999999995 1.786964168701172 1.1732587499999996 Q 1.7710754187011717 1.1874749999999996 1.7426429187011718 1.1874749999999996 L 1.5235454187011719 1.1874749999999996 Z M 2.185800703125 1.1874749999999996 Q 2.170748203125 1.1874749999999996 2.160713203125 1.1766037499999995 Q 2.150678203125 1.1657324999999996 2.150678203125 1.1523524999999997 Q 2.150678203125 1.1439899999999996 2.152350703125 1.1372999999999995 L 2.550405703125 0.06188249999999962 Q 2.555423203125 0.04348499999999955 2.570475703125 0.030104999999999604 Q 2.585528203125 0.016724999999999657 2.612288203125 0.016724999999999657 L 2.826368203125 0.016724999999999657 Q 2.853128203125 0.016724999999999657 2.8681807031249997 0.030104999999999604 Q 2.883233203125 0.04348499999999955 2.888250703125 0.06188249999999962 L 3.286305703125 1.1372999999999995 Q 3.287978203125 1.1439899999999996 3.287978203125 1.1523524999999997 Q 3.287978203125 1.1657324999999996 3.277943203125 1.1766037499999995 Q 3.2679082031249997 1.1874749999999996 3.2528557031250003 1.1874749999999996 L 3.078915703125 1.1874749999999996 Q 3.0538282031249997 1.1874749999999996 3.0421207031249997 1.1757674999999996 Q 3.0304132031249997 1.1640599999999997 3.027068203125 1.1540249999999996 L 2.9551507031249997 0.9667049999999996 L 2.483505703125 0.9667049999999996 L 2.411588203125 1.1540249999999996 Q 2.408243203125 1.1640599999999997 2.396535703125 1.1757674999999996 Q 2.384828203125 1.1874749999999996 2.359740703125 1.1874749999999996 L 2.185800703125 1.1874749999999996 Z M 2.545388203125 0.7509524999999997 L 2.8915957031249997 0.7509524999999997 L 2.719328203125 0.2692724999999997 L 2.545388203125 0.7509524999999997 Z M 3.4903164038085936 1.1874749999999996 Q 3.471918903808594 1.1874749999999996 3.460211403808594 1.1757674999999996 Q 3.448503903808594 1.1640599999999997 3.448503903808594 1.1456624999999996 L 3.448503903808594 0.05853749999999969 Q 3.448503903808594 0.04013999999999962 3.460211403808594 0.02843249999999964 Q 3.471918903808594 0.016724999999999657 3.4903164038085936 0.016724999999999657 L 3.642513903808594 0.016724999999999657 Q 3.6676014038085936 0.016724999999999657 3.6793089038085935 0.02843249999999964 Q 3.6910164038085935 0.04013999999999962 3.6943614038085935 0.046829999999999705 L 4.140918903808593 0.7442624999999996 L 4.140918903808593 0.05853749999999969 Q 4.140918903808593 0.04013999999999962 4.152626403808593 0.02843249999999964 Q 4.164333903808593 0.016724999999999657 4.1810589038085935 0.016724999999999657 L 4.351653903808594 0.016724999999999657 Q 4.370051403808594 0.016724999999999657 4.381758903808594 0.02843249999999964 Q 4.393466403808594 0.04013999999999962 4.393466403808594 0.05853749999999969 L 4.393466403808594 1.1456624999999996 Q 4.393466403808594 1.1623874999999997 4.381758903808594 1.1749312499999995 Q 4.370051403808594 1.1874749999999996 4.351653903808594 1.1874749999999996 L 4.197783903808594 1.1874749999999996 Q 4.172696403808594 1.1874749999999996 4.161825153808594 1.1749312499999995 Q 4.150953903808594 1.1623874999999997 4.1459364038085935 1.1573699999999996 L 3.7010514038085938 0.48167999999999966 L 3.7010514038085938 1.1456624999999996 Q 3.7010514038085938 1.1640599999999997 3.689343903808594 1.1757674999999996 Q 3.677636403808594 1.1874749999999996 3.6592389038085935 1.1874749999999996 L 3.4903164038085936 1.1874749999999996 Z M 4.699453055419922 1.1874749999999996 Q 4.681055555419921 1.1874749999999996 4.669348055419921 1.1757674999999996 Q 4.657640555419921 1.1640599999999997 4.657640555419921 1.1456624999999996 L 4.657640555419921 0.05853749999999969 Q 4.657640555419921 0.04013999999999962 4.669348055419921 0.02843249999999964 Q 4.681055555419921 0.016724999999999657 4.699453055419922 0.016724999999999657 L 4.851650555419922 0.016724999999999657 Q 4.876738055419922 0.016724999999999657 4.8884455554199215 0.02843249999999964 Q 4.9001530554199215 0.04013999999999962 4.903498055419922 0.046829999999999705 L 5.350055555419922 0.7442624999999996 L 5.350055555419922 0.05853749999999969 Q 5.350055555419922 0.04013999999999962 5.361763055419922 0.02843249999999964 Q 5.373470555419922 0.016724999999999657 5.390195555419922 0.016724999999999657 L 5.5607905554199215 0.016724999999999657 Q 5.579188055419921 0.016724999999999657 5.590895555419921 0.02843249999999964 Q 5.602603055419921 0.04013999999999962 5.602603055419921 0.05853749999999969 L 5.602603055419921 1.1456624999999996 Q 5.602603055419921 1.1623874999999997 5.590895555419921 1.1749312499999995 Q 5.579188055419921 1.1874749999999996 5.5607905554199215 1.1874749999999996 L 5.406920555419922 1.1874749999999996 Q 5.381833055419921 1.1874749999999996 5.370961805419921 1.1749312499999995 Q 5.360090555419921 1.1623874999999997 5.355073055419922 1.1573699999999996 L 4.910188055419922 0.48167999999999966 L 4.910188055419922 1.1456624999999996 Q 4.910188055419922 1.1640599999999997 4.898480555419922 1.1757674999999996 Q 4.886773055419922 1.1874749999999996 4.868375555419922 1.1874749999999996 L 4.699453055419922 1.1874749999999996 Z M 6.294849008789062 1.1874749999999996 Q 6.276451508789061 1.1874749999999996 6.264744008789061 1.1757674999999996 Q 6.253036508789061 1.1640599999999997 6.253036508789061 1.1456624999999996 L 6.253036508789061 0.05853749999999969 Q 6.253036508789061 0.04013999999999962 6.264744008789061 0.02843249999999964 Q 6.276451508789061 0.016724999999999657 6.294849008789062 0.016724999999999657 L 7.040784008789061 0.016724999999999657 Q 7.059181508789061 0.016724999999999657 7.070889008789061 0.02843249999999964 Q 7.082596508789061 0.04013999999999962 7.082596508789061 0.05853749999999969 L 7.082596508789061 0.20069999999999966 Q 7.082596508789061 0.2190974999999996 7.070889008789061 0.2308049999999996 Q 7.059181508789061 0.2425124999999997 7.040784008789061 0.2425124999999997 L 6.513946508789061 0.2425124999999997 L 6.513946508789061 0.5251649999999997 L 7.007334008789062 0.5251649999999997 Q 7.025731508789062 0.5251649999999997 7.037439008789062 0.5368724999999996 Q 7.049146508789062 0.5485799999999996 7.049146508789062 0.5669774999999997 L 7.049146508789062 0.7091399999999997 Q 7.049146508789062 0.7258649999999996 7.037439008789062 0.7375724999999996 Q 7.025731508789062 0.7492799999999996 7.007334008789062 0.7492799999999996 L 6.513946508789061 0.7492799999999996 L 6.513946508789061 1.1456624999999996 Q 6.513946508789061 1.1640599999999997 6.502239008789061 1.1757674999999996 Q 6.490531508789061 1.1874749999999996 6.4721340087890615 1.1874749999999996 L 6.294849008789062 1.1874749999999996 Z M 7.330039127197265 1.1874749999999996 Q 7.311641627197265 1.1874749999999996 7.299934127197265 1.1757674999999996 Q 7.288226627197265 1.1640599999999997 7.288226627197265 1.1456624999999996 L 7.288226627197265 0.05853749999999969 Q 7.288226627197265 0.04013999999999962 7.299934127197265 0.02843249999999964 Q 7.311641627197265 0.016724999999999657 7.330039127197265 0.016724999999999657 L 7.773251627197265 0.016724999999999657 Q 7.982314127197265 0.016724999999999657 8.102734127197264 0.11289374999999957 Q 8.223154127197265 0.2090624999999996 8.223154127197265 0.38969249999999966 Q 8.223154127197265 0.5117849999999996 8.164616627197265 0.5937374999999996 Q 8.106079127197265 0.6756899999999997 8.007401627197265 0.7158299999999996 L 8.243224127197266 1.1339549999999996 Q 8.248241627197265 1.1439899999999996 8.248241627197265 1.1523524999999997 Q 8.248241627197265 1.1657324999999996 8.238206627197265 1.1766037499999995 Q 8.228171627197264 1.1874749999999996 8.213119127197265 1.1874749999999996 L 8.027471627197265 1.1874749999999996 Q 7.997366627197265 1.1874749999999996 7.982314127197265 1.1715862499999996 Q 7.967261627197265 1.1556974999999996 7.960571627197265 1.1423174999999997 L 7.756526627197265 0.7593149999999996 L 7.554154127197265 0.7593149999999996 L 7.554154127197265 1.1456624999999996 Q 7.554154127197265 1.1640599999999997 7.542446627197265 1.1757674999999996 Q 7.530739127197265 1.1874749999999996 7.512341627197265 1.1874749999999996 L 7.330039127197265 1.1874749999999996 Z M 7.554154127197265 0.5469074999999997 L 7.768234127197265 0.5469074999999997 Q 7.860221627197265 0.5469074999999997 7.904542877197265 0.5050949999999996 Q 7.948864127197265 0.4632824999999996 7.948864127197265 0.3880199999999996 Q 7.948864127197265 0.3127574999999997 7.905379127197265 0.2692724999999997 Q 7.861894127197265 0.2257874999999997 7.768234127197265 0.2257874999999997 L 7.554154127197265 0.2257874999999997 L 7.554154127197265 0.5469074999999997 Z M 8.487318479003905 1.1874749999999996 Q 8.468920979003906 1.1874749999999996 8.457213479003906 1.1757674999999996 Q 8.445505979003906 1.1640599999999997 8.445505979003906 1.1456624999999996 L 8.445505979003906 0.05853749999999969 Q 8.445505979003906 0.04013999999999962 8.457213479003906 0.02843249999999964 Q 8.468920979003906 0.016724999999999657 8.487318479003905 0.016724999999999657 L 8.676310979003906 0.016724999999999657 Q 8.694708479003905 0.016724999999999657 8.706415979003905 0.02843249999999964 Q 8.718123479003905 0.04013999999999962 8.718123479003905 0.05853749999999969 L 8.718123479003905 1.1456624999999996 Q 8.718123479003905 1.1640599999999997 8.706415979003905 1.1757674999999996 Q 8.694708479003905 1.1874749999999996 8.676310979003906 1.1874749999999996 L 8.487318479003905 1.1874749999999996 Z M 9.024147696533202 1.1874749999999996 Q 9.005750196533203 1.1874749999999996 8.994042696533203 1.1757674999999996 Q 8.982335196533203 1.1640599999999997 8.982335196533203 1.1456624999999996 L 8.982335196533203 0.05853749999999969 Q 8.982335196533203 0.04013999999999962 8.994042696533203 0.02843249999999964 Q 9.005750196533203 0.016724999999999657 9.024147696533202 0.016724999999999657 L 9.781790196533203 0.016724999999999657 Q 9.800187696533202 0.016724999999999657 9.811895196533202 0.02843249999999964 Q 9.823602696533202 0.04013999999999962 9.823602696533202 0.05853749999999969 L 9.823602696533202 0.1923374999999996 Q 9.823602696533202 0.2090624999999996 9.811895196533202 0.2207699999999997 Q 9.800187696533202 0.23247749999999967 9.781790196533203 0.23247749999999967 L 9.239900196533203 0.23247749999999967 L 9.239900196533203 0.4950599999999996 L 9.744995196533203 0.4950599999999996 Q 9.763392696533202 0.4950599999999996 9.775100196533202 0.5067674999999996 Q 9.786807696533202 0.5184749999999997 9.786807696533202 0.5368724999999996 L 9.786807696533202 0.6606374999999997 Q 9.786807696533202 0.6773624999999996 9.775100196533202 0.6890699999999996 Q 9.763392696533202 0.7007774999999996 9.744995196533203 0.7007774999999996 L 9.239900196533203 0.7007774999999996 L 9.239900196533203 0.9717224999999996 L 9.795170196533203 0.9717224999999996 Q 9.813567696533202 0.9717224999999996 9.825275196533202 0.9834299999999996 Q 9.836982696533202 0.9951374999999996 9.836982696533202 1.0135349999999996 L 9.836982696533202 1.1456624999999996 Q 9.836982696533202 1.1640599999999997 9.825275196533202 1.1757674999999996 Q 9.813567696533202 1.1874749999999996 9.795170196533203 1.1874749999999996 L 9.024147696533202 1.1874749999999996 Z M 10.47411128173828 1.2041999999999997 Q 10.31355128173828 1.2041999999999997 10.205675031738279 1.1573699999999996 Q 10.09779878173828 1.1105399999999996 10.04260628173828 1.0352774999999996 Q 9.98741378173828 0.9600149999999996 9.98406878173828 0.8747174999999996 Q 9.98406878173828 0.8613374999999996 9.99410378173828 0.8504662499999996 Q 10.004138781738279 0.8395949999999996 10.01919128173828 0.8395949999999996 L 10.19814878173828 0.8395949999999996 Q 10.21989128173828 0.8395949999999996 10.23159878173828 0.8487937499999996 Q 10.24330628173828 0.8579924999999996 10.25334128173828 0.8713724999999997 Q 10.26504878173828 0.8998049999999996 10.29097253173828 0.9265649999999996 Q 10.316896281738279 0.9533249999999996 10.362053781738279 0.9708862499999996 Q 10.40721128173828 0.9884474999999996 10.47411128173828 0.9884474999999996 Q 10.582823781738279 0.9884474999999996 10.63718003173828 0.9533249999999996 Q 10.69153628173828 0.9182024999999996 10.69153628173828 0.8579924999999996 Q 10.69153628173828 0.8145074999999996 10.66226753173828 0.7877474999999996 Q 10.63299878173828 0.7609874999999997 10.57028003173828 0.7392449999999997 Q 10.50756128173828 0.7175024999999997 10.40386628173828 0.6924149999999996 Q 10.27842878173828 0.6656549999999997 10.19062253173828 0.6230062499999997 Q 10.10281628173828 0.5803574999999996 10.05849503173828 0.5126212499999996 Q 10.014173781738279 0.44488499999999964 10.014173781738279 0.3445349999999996 Q 10.014173781738279 0.24418499999999965 10.06936628173828 0.16641374999999958 Q 10.12455878173828 0.08864249999999974 10.22490878173828 0.044321249999999646 Q 10.32525878173828 -4.440892098500626e-16 10.46407628173828 -4.440892098500626e-16 Q 10.57613378173828 -4.440892098500626e-16 10.66226753173828 0.030104999999999604 Q 10.74840128173828 0.06020999999999965 10.80610253173828 0.10871249999999955 Q 10.86380378173828 0.15721499999999966 10.89390878173828 0.21240749999999964 Q 10.92401378173828 0.2675999999999996 10.92568628173828 0.31944749999999966 Q 10.92568628173828 0.3328274999999996 10.91565128173828 0.3436987499999996 Q 10.90561628173828 0.3545699999999996 10.89056378173828 0.3545699999999996 L 10.70324378173828 0.3545699999999996 Q 10.686518781738279 0.3545699999999996 10.67313878173828 0.34787999999999963 Q 10.65975878173828 0.34118999999999966 10.651396281738279 0.32446499999999967 Q 10.641361281738279 0.2809799999999997 10.59202253173828 0.24836624999999968 Q 10.54268378173828 0.21575249999999968 10.46407628173828 0.21575249999999968 Q 10.38212378173828 0.21575249999999968 10.33445753173828 0.24585749999999962 Q 10.28679128173828 0.27596249999999967 10.28679128173828 0.3378449999999996 Q 10.28679128173828 0.3779849999999997 10.311042531738279 0.40558124999999967 Q 10.33529378173828 0.43317749999999966 10.39299503173828 0.4540837499999997 Q 10.45069628173828 0.4749899999999997 10.54602878173828 0.5000774999999996 Q 10.69320878173828 0.5301824999999997 10.78519628173828 0.5719949999999996 Q 10.87718378173828 0.6138074999999996 10.92066878173828 0.6798712499999996 Q 10.964153781738279 0.7459349999999996 10.964153781738279 0.8462849999999996 Q 10.964153781738279 0.9583424999999997 10.901435031738279 1.0386224999999996 Q 10.838716281738279 1.1189024999999997 10.72916753173828 1.1615512499999996 Q 10.61961878173828 1.2041999999999997 10.47411128173828 1.2041999999999997 Z" fill="#f9f9f9" fill-rule="nonzero"></path></g><g><path d=" M 0.9293990478515597 2.40235125 Q 0.9211490478515597 2.40235125 0.9166490478515597 2.39747625 Q 0.9121490478515597 2.3926012500000002 0.9121490478515597 2.38510125 L 0.9121490478515597 1.89535125 Q 0.9121490478515597 1.8871012500000002 0.9166490478515597 1.88222625 Q 0.9211490478515597 1.8773512500000002 0.9293990478515597 1.8773512500000002 L 0.9676490478515597 1.8773512500000002 Q 0.9758990478515597 1.8773512500000002 0.9807740478515596 1.88222625 Q 0.9856490478515597 1.8871012500000002 0.9856490478515597 1.89535125 L 0.9856490478515597 2.1023512500000003 L 1.2436490478515596 2.1023512500000003 L 1.2436490478515596 1.89535125 Q 1.2436490478515596 1.8871012500000002 1.2485240478515598 1.88222625 Q 1.2533990478515598 1.8773512500000002 1.2608990478515598 1.8773512500000002 L 1.2991490478515597 1.8773512500000002 Q 1.3073990478515598 1.8773512500000002 1.3122740478515595 1.88222625 Q 1.3171490478515597 1.8871012500000002 1.3171490478515597 1.89535125 L 1.3171490478515597 2.38510125 Q 1.3171490478515597 2.3926012500000002 1.3122740478515595 2.39747625 Q 1.3073990478515598 2.40235125 1.2991490478515597 2.40235125 L 1.2608990478515598 2.40235125 Q 1.2533990478515598 2.40235125 1.2485240478515598 2.39747625 Q 1.2436490478515596 2.3926012500000002 1.2436490478515596 2.38510125 L 1.2436490478515596 2.1698512500000002 L 0.9856490478515597 2.1698512500000002 L 0.9856490478515597 2.38510125 Q 0.9856490478515597 2.3926012500000002 0.9807740478515596 2.39747625 Q 0.9758990478515597 2.40235125 0.9676490478515597 2.40235125 L 0.9293990478515597 2.40235125 Z M 1.5871409912109347 2.40235125 Q 1.5796409912109348 2.40235125 1.5747659912109349 2.39747625 Q 1.5698909912109347 2.3926012500000002 1.5698909912109347 2.38510125 L 1.5698909912109347 1.9441012500000001 L 1.4258909912109348 1.9441012500000001 Q 1.4183909912109347 1.9441012500000001 1.4135159912109347 1.9392262500000002 Q 1.4086409912109348 1.9343512500000002 1.4086409912109348 1.9268512500000001 L 1.4086409912109348 1.89535125 Q 1.4086409912109348 1.8871012500000002 1.4135159912109347 1.88222625 Q 1.4183909912109347 1.8773512500000002 1.4258909912109348 1.8773512500000002 L 1.7873909912109347 1.8773512500000002 Q 1.7956409912109348 1.8773512500000002 1.8005159912109348 1.88222625 Q 1.8053909912109347 1.8871012500000002 1.8053909912109347 1.89535125 L 1.8053909912109347 1.9268512500000001 Q 1.8053909912109347 1.9343512500000002 1.8005159912109348 1.9392262500000002 Q 1.7956409912109348 1.9441012500000001 1.7873909912109347 1.9441012500000001 L 1.6441409912109348 1.9441012500000001 L 1.6441409912109348 2.38510125 Q 1.6441409912109348 2.3926012500000002 1.6392659912109346 2.39747625 Q 1.6343909912109347 2.40235125 1.6261409912109348 2.40235125 L 1.5871409912109347 2.40235125 Z M 1.9141256103515598 2.40235125 Q 1.9066256103515598 2.40235125 1.9017506103515598 2.39747625 Q 1.8968756103515598 2.3926012500000002 1.8968756103515598 2.38510125 L 1.8968756103515598 1.89535125 Q 1.8968756103515598 1.8871012500000002 1.9017506103515598 1.88222625 Q 1.9066256103515598 1.8773512500000002 1.9141256103515598 1.8773512500000002 L 1.95162561035156 1.8773512500000002 Q 1.9606256103515598 1.8773512500000002 1.9651256103515597 1.8818512500000002 Q 1.9696256103515597 1.8863512500000001 1.9711256103515598 1.8893512500000003 L 2.12937561035156 2.19235125 L 2.28912561035156 1.8893512500000003 Q 2.29062561035156 1.8863512500000001 2.29475061035156 1.8818512500000002 Q 2.2988756103515597 1.8773512500000002 2.3078756103515596 1.8773512500000002 L 2.3446256103515597 1.8773512500000002 Q 2.3528756103515596 1.8773512500000002 2.3577506103515598 1.88222625 Q 2.36262561035156 1.8871012500000002 2.36262561035156 1.89535125 L 2.36262561035156 2.38510125 Q 2.36262561035156 2.3926012500000002 2.3577506103515598 2.39747625 Q 2.3528756103515596 2.40235125 2.3446256103515597 2.40235125 L 2.3078756103515596 2.40235125 Q 2.30037561035156 2.40235125 2.29550061035156 2.39747625 Q 2.29062561035156 2.3926012500000002 2.29062561035156 2.38510125 L 2.29062561035156 2.01610125 L 2.1653756103515596 2.26060125 Q 2.16237561035156 2.26810125 2.1563756103515597 2.27222625 Q 2.15037561035156 2.2763512500000003 2.14137561035156 2.2763512500000003 L 2.11812561035156 2.2763512500000003 Q 2.1083756103515596 2.2763512500000003 2.10312561035156 2.27222625 Q 2.0978756103515597 2.26810125 2.09412561035156 2.26060125 L 1.9681256103515599 2.01610125 L 1.9681256103515599 2.38510125 Q 1.9681256103515599 2.3926012500000002 1.96325061035156 2.39747625 Q 1.9583756103515597 2.40235125 1.9508756103515599 2.40235125 L 1.9141256103515598 2.40235125 Z M 2.5170845947265597 2.40235125 Q 2.50883459472656 2.40235125 2.5043345947265596 2.39747625 Q 2.4998345947265594 2.3926012500000002 2.4998345947265594 2.38510125 L 2.4998345947265594 1.89460125 Q 2.4998345947265594 1.8871012500000002 2.5043345947265596 1.88222625 Q 2.50883459472656 1.8773512500000002 2.5170845947265597 1.8773512500000002 L 2.55683459472656 1.8773512500000002 Q 2.5643345947265597 1.8773512500000002 2.5692095947265594 1.88222625 Q 2.5740845947265596 1.8871012500000002 2.5740845947265596 1.89460125 L 2.5740845947265596 2.3371012500000004 L 2.8230845947265597 2.3371012500000004 Q 2.8313345947265596 2.3371012500000004 2.8362095947265598 2.34197625 Q 2.8410845947265595 2.3468512500000003 2.8410845947265595 2.35510125 L 2.8410845947265595 2.38510125 Q 2.8410845947265595 2.3926012500000002 2.8362095947265598 2.39747625 Q 2.8313345947265596 2.40235125 2.8230845947265597 2.40235125 L 2.5170845947265597 2.40235125 Z M 3.1088214111328094 2.5583512500000003 Q 3.101321411132809 2.5583512500000003 3.0964464111328094 2.55347625 Q 3.091571411132809 2.54860125 3.091571411132809 2.54110125 L 3.091571411132809 1.7476012500000002 Q 3.091571411132809 1.7401012500000002 3.0964464111328094 1.7352262500000002 Q 3.101321411132809 1.73035125 3.1088214111328094 1.73035125 L 3.138071411132809 1.73035125 Q 3.1455714111328095 1.73035125 3.150446411132809 1.7352262500000002 Q 3.1553214111328094 1.7401012500000002 3.1553214111328094 1.7476012500000002 L 3.1553214111328094 2.54110125 Q 3.1553214111328094 2.54860125 3.150446411132809 2.55347625 Q 3.1455714111328095 2.5583512500000003 3.138071411132809 2.5583512500000003 L 3.1088214111328094 2.5583512500000003 Z M 3.6307961425781214 2.40985125 Q 3.5925461425781213 2.40985125 3.5584211425781214 2.40010125 Q 3.5242961425781214 2.39035125 3.4976711425781213 2.3708512500000003 Q 3.4710461425781216 2.35135125 3.4552961425781215 2.32135125 Q 3.4395461425781213 2.29135125 3.4380461425781217 2.25085125 Q 3.4380461425781217 2.24410125 3.4425461425781214 2.23922625 Q 3.4470461425781216 2.23435125 3.4545461425781214 2.23435125 L 3.4950461425781216 2.23435125 Q 3.5032961425781215 2.23435125 3.5081711425781217 2.23922625 Q 3.5130461425781214 2.24410125 3.5145461425781215 2.25160125 Q 3.5175461425781216 2.28535125 3.5340461425781213 2.30597625 Q 3.5505461425781215 2.32660125 3.5760461425781216 2.3363512500000003 Q 3.6015461425781217 2.3461012500000002 3.6322961425781215 2.3461012500000002 Q 3.6892961425781214 2.3461012500000002 3.7192961425781217 2.30860125 Q 3.7492961425781215 2.27110125 3.7492961425781215 2.2088512500000004 L 3.7492961425781215 1.94260125 L 3.4830461425781216 1.94260125 Q 3.4755461425781213 1.94260125 3.4706711425781216 1.93772625 Q 3.4657961425781214 1.9328512500000001 3.4657961425781214 1.92535125 L 3.4657961425781214 1.89460125 Q 3.4657961425781214 1.8871012500000002 3.4706711425781216 1.88222625 Q 3.4755461425781213 1.8773512500000002 3.4830461425781216 1.8773512500000002 L 3.8062961425781214 1.8773512500000002 Q 3.8145461425781217 1.8773512500000002 3.8194211425781215 1.88222625 Q 3.8242961425781217 1.8871012500000002 3.8242961425781217 1.89535125 L 3.8242961425781217 2.21035125 Q 3.8242961425781217 2.27110125 3.8010461425781217 2.31610125 Q 3.7777961425781217 2.3611012500000004 3.7350461425781214 2.38547625 Q 3.6922961425781216 2.40985125 3.6307961425781214 2.40985125 Z M 4.126525268554684 2.40985125 Q 4.061275268554684 2.40985125 4.017025268554684 2.38960125 Q 3.9727752685546838 2.3693512500000002 3.9491502685546838 2.3374762500000004 Q 3.9255252685546838 2.30560125 3.9240252685546837 2.27035125 Q 3.9240252685546837 2.2643512500000003 3.928900268554684 2.25947625 Q 3.9337752685546836 2.2546012500000003 3.940525268554684 2.2546012500000003 L 3.978775268554684 2.2546012500000003 Q 3.987775268554684 2.2546012500000003 3.9922752685546836 2.25910125 Q 3.996775268554684 2.2636012500000002 3.998275268554684 2.26960125 Q 4.002775268554684 2.2876012500000003 4.017025268554684 2.30522625 Q 4.031275268554684 2.3228512500000003 4.057900268554683 2.3344762500000003 Q 4.084525268554684 2.3461012500000002 4.126525268554684 2.3461012500000002 Q 4.191025268554684 2.3461012500000002 4.221400268554683 2.3232262500000003 Q 4.251775268554684 2.3003512500000003 4.251775268554684 2.26210125 Q 4.251775268554684 2.23585125 4.235650268554684 2.2197262500000003 Q 4.219525268554684 2.20360125 4.186525268554684 2.19085125 Q 4.1535252685546835 2.17810125 4.101025268554684 2.16310125 Q 4.046275268554684 2.1473512500000003 4.010275268554683 2.12860125 Q 3.974275268554684 2.10985125 3.956650268554684 2.08210125 Q 3.939025268554684 2.0543512500000003 3.939025268554684 2.01160125 Q 3.939025268554684 1.9711012500000002 3.9607752685546838 1.9392262500000002 Q 3.9825252685546837 1.90735125 4.023775268554684 1.8886012500000002 Q 4.065025268554684 1.8698512500000002 4.122775268554684 1.8698512500000002 Q 4.169275268554684 1.8698512500000002 4.204150268554684 1.88222625 Q 4.239025268554684 1.89460125 4.262275268554684 1.9152262500000001 Q 4.285525268554684 1.9358512500000002 4.297525268554684 1.9594762500000003 Q 4.309525268554684 1.9831012500000003 4.310275268554684 2.0056012500000002 Q 4.310275268554684 2.01085125 4.306525268554684 2.01572625 Q 4.302775268554684 2.0206012500000003 4.2945252685546835 2.0206012500000003 L 4.254775268554684 2.0206012500000003 Q 4.249525268554684 2.0206012500000003 4.243900268554684 2.0176012500000002 Q 4.238275268554684 2.01460125 4.235275268554684 2.0063512500000003 Q 4.230775268554684 1.9756012500000002 4.2007752685546835 1.95460125 Q 4.170775268554684 1.9336012500000002 4.122775268554684 1.9336012500000002 Q 4.074025268554684 1.9336012500000002 4.043650268554684 1.9523512500000002 Q 4.0132752685546835 1.9711012500000002 4.0132752685546835 2.01085125 Q 4.0132752685546835 2.03635125 4.027525268554684 2.0532262500000003 Q 4.041775268554684 2.07010125 4.072525268554684 2.08285125 Q 4.103275268554684 2.09560125 4.1527752685546835 2.10985125 Q 4.212775268554684 2.12635125 4.251025268554684 2.14472625 Q 4.289275268554684 2.16310125 4.307650268554684 2.19047625 Q 4.326025268554684 2.2178512500000003 4.326025268554684 2.26060125 Q 4.326025268554684 2.30785125 4.301275268554684 2.34122625 Q 4.276525268554684 2.37460125 4.231900268554684 2.39222625 Q 4.187275268554684 2.40985125 4.126525268554684 2.40985125 Z M 4.630482788085934 2.5583512500000003 Q 4.622982788085934 2.5583512500000003 4.618107788085934 2.55347625 Q 4.613232788085934 2.54860125 4.613232788085934 2.54110125 L 4.613232788085934 1.7476012500000002 Q 4.613232788085934 1.7401012500000002 4.618107788085934 1.7352262500000002 Q 4.622982788085934 1.73035125 4.630482788085934 1.73035125 L 4.659732788085934 1.73035125 Q 4.667232788085934 1.73035125 4.672107788085934 1.7352262500000002 Q 4.676982788085934 1.7401012500000002 4.676982788085934 1.7476012500000002 L 4.676982788085934 2.54110125 Q 4.676982788085934 2.54860125 4.672107788085934 2.55347625 Q 4.667232788085934 2.5583512500000003 4.659732788085934 2.5583512500000003 L 4.630482788085934 2.5583512500000003 Z M 5.185457519531247 2.40985125 Q 5.116457519531247 2.40985125 5.071082519531247 2.3843512500000004 Q 5.025707519531247 2.3588512500000003 5.002457519531247 2.3131012500000003 Q 4.979207519531247 2.26735125 4.976957519531247 2.2066012500000003 Q 4.976207519531247 2.17585125 4.976207519531247 2.14060125 Q 4.976207519531247 2.10535125 4.976957519531247 2.07310125 Q 4.979207519531247 2.01235125 5.002457519531247 1.96660125 Q 5.025707519531247 1.9208512500000001 5.071082519531247 1.89535125 Q 5.116457519531247 1.8698512500000002 5.185457519531247 1.8698512500000002 Q 5.237207519531247 1.8698512500000002 5.276207519531247 1.88410125 Q 5.315207519531247 1.8983512500000002 5.341082519531247 1.9223512500000002 Q 5.366957519531247 1.9463512500000002 5.380457519531247 1.9759762500000002 Q 5.393957519531247 2.0056012500000002 5.395457519531247 2.03710125 Q 5.396207519531247 2.0438512500000003 5.391332519531247 2.04835125 Q 5.386457519531247 2.0528512500000002 5.379707519531247 2.0528512500000002 L 5.338457519531247 2.0528512500000002 Q 5.331707519531247 2.0528512500000002 5.326832519531247 2.04910125 Q 5.321957519531247 2.0453512500000004 5.319707519531247 2.03560125 Q 5.306957519531247 1.97710125 5.272082519531247 1.95535125 Q 5.237207519531247 1.9336012500000002 5.185457519531247 1.9336012500000002 Q 5.124707519531247 1.9336012500000002 5.089457519531247 1.9677262500000001 Q 5.054207519531247 2.00185125 5.051957519531247 2.0768512500000003 Q 5.049707519531247 2.1383512500000004 5.051957519531247 2.20285125 Q 5.054207519531247 2.2778512500000003 5.089457519531247 2.3119762500000003 Q 5.124707519531247 2.3461012500000002 5.185457519531247 2.3461012500000002 Q 5.237207519531247 2.3461012500000002 5.272082519531247 2.3243512500000003 Q 5.306957519531247 2.3026012500000004 5.319707519531247 2.24410125 Q 5.321957519531247 2.23435125 5.326832519531247 2.2306012500000003 Q 5.331707519531247 2.22685125 5.338457519531247 2.22685125 L 5.379707519531247 2.22685125 Q 5.386457519531247 2.22685125 5.391332519531247 2.2309762500000003 Q 5.396207519531247 2.23510125 5.395457519531247 2.2418512500000003 Q 5.393957519531247 2.27335125 5.380457519531247 2.30335125 Q 5.366957519531247 2.33335125 5.341082519531247 2.3573512500000002 Q 5.315207519531247 2.3813512500000003 5.276207519531247 2.3956012500000003 Q 5.237207519531247 2.40985125 5.185457519531247 2.40985125 Z M 5.67217346191406 2.40985125 Q 5.60692346191406 2.40985125 5.56267346191406 2.38960125 Q 5.51842346191406 2.3693512500000002 5.49479846191406 2.3374762500000004 Q 5.47117346191406 2.30560125 5.46967346191406 2.27035125 Q 5.46967346191406 2.2643512500000003 5.474548461914059 2.25947625 Q 5.47942346191406 2.2546012500000003 5.48617346191406 2.2546012500000003 L 5.5244234619140595 2.2546012500000003 Q 5.53342346191406 2.2546012500000003 5.53792346191406 2.25910125 Q 5.54242346191406 2.2636012500000002 5.543923461914059 2.26960125 Q 5.5484234619140596 2.2876012500000003 5.56267346191406 2.30522625 Q 5.57692346191406 2.3228512500000003 5.60354846191406 2.3344762500000003 Q 5.63017346191406 2.3461012500000002 5.67217346191406 2.3461012500000002 Q 5.73667346191406 2.3461012500000002 5.76704846191406 2.3232262500000003 Q 5.79742346191406 2.3003512500000003 5.79742346191406 2.26210125 Q 5.79742346191406 2.23585125 5.7812984619140595 2.2197262500000003 Q 5.76517346191406 2.20360125 5.732173461914059 2.19085125 Q 5.69917346191406 2.17810125 5.64667346191406 2.16310125 Q 5.591923461914059 2.1473512500000003 5.55592346191406 2.12860125 Q 5.51992346191406 2.10985125 5.50229846191406 2.08210125 Q 5.48467346191406 2.0543512500000003 5.48467346191406 2.01160125 Q 5.48467346191406 1.9711012500000002 5.50642346191406 1.9392262500000002 Q 5.52817346191406 1.90735125 5.5694234619140595 1.8886012500000002 Q 5.61067346191406 1.8698512500000002 5.66842346191406 1.8698512500000002 Q 5.71492346191406 1.8698512500000002 5.74979846191406 1.88222625 Q 5.78467346191406 1.89460125 5.80792346191406 1.9152262500000001 Q 5.83117346191406 1.9358512500000002 5.84317346191406 1.9594762500000003 Q 5.85517346191406 1.9831012500000003 5.85592346191406 2.0056012500000002 Q 5.85592346191406 2.01085125 5.8521734619140595 2.01572625 Q 5.848423461914059 2.0206012500000003 5.84017346191406 2.0206012500000003 L 5.80042346191406 2.0206012500000003 Q 5.79517346191406 2.0206012500000003 5.78954846191406 2.0176012500000002 Q 5.78392346191406 2.01460125 5.7809234619140595 2.0063512500000003 Q 5.77642346191406 1.9756012500000002 5.74642346191406 1.95460125 Q 5.71642346191406 1.9336012500000002 5.66842346191406 1.9336012500000002 Q 5.61967346191406 1.9336012500000002 5.58929846191406 1.9523512500000002 Q 5.55892346191406 1.9711012500000002 5.55892346191406 2.01085125 Q 5.55892346191406 2.03635125 5.57317346191406 2.0532262500000003 Q 5.58742346191406 2.07010125 5.6181734619140595 2.08285125 Q 5.64892346191406 2.09560125 5.69842346191406 2.10985125 Q 5.7584234619140595 2.12635125 5.79667346191406 2.14472625 Q 5.83492346191406 2.16310125 5.85329846191406 2.19047625 Q 5.87167346191406 2.2178512500000003 5.87167346191406 2.26060125 Q 5.87167346191406 2.30785125 5.84692346191406 2.34122625 Q 5.82217346191406 2.37460125 5.77754846191406 2.39222625 Q 5.732923461914059 2.40985125 5.67217346191406 2.40985125 Z M 6.146134643554685 2.40985125 Q 6.080884643554685 2.40985125 6.036634643554685 2.38960125 Q 5.9923846435546855 2.3693512500000002 5.9687596435546855 2.3374762500000004 Q 5.9451346435546855 2.30560125 5.943634643554685 2.27035125 Q 5.943634643554685 2.2643512500000003 5.948509643554685 2.25947625 Q 5.953384643554685 2.2546012500000003 5.960134643554685 2.2546012500000003 L 5.998384643554685 2.2546012500000003 Q 6.007384643554685 2.2546012500000003 6.011884643554685 2.25910125 Q 6.0163846435546855 2.2636012500000002 6.017884643554685 2.26960125 Q 6.022384643554685 2.2876012500000003 6.036634643554685 2.30522625 Q 6.050884643554685 2.3228512500000003 6.077509643554685 2.3344762500000003 Q 6.104134643554685 2.3461012500000002 6.146134643554685 2.3461012500000002 Q 6.210634643554685 2.3461012500000002 6.241009643554685 2.3232262500000003 Q 6.271384643554685 2.3003512500000003 6.271384643554685 2.26210125 Q 6.271384643554685 2.23585125 6.255259643554685 2.2197262500000003 Q 6.239134643554685 2.20360125 6.206134643554685 2.19085125 Q 6.173134643554685 2.17810125 6.120634643554685 2.16310125 Q 6.065884643554685 2.1473512500000003 6.029884643554685 2.12860125 Q 5.9938846435546855 2.10985125 5.976259643554685 2.08210125 Q 5.958634643554685 2.0543512500000003 5.958634643554685 2.01160125 Q 5.958634643554685 1.9711012500000002 5.980384643554685 1.9392262500000002 Q 6.002134643554685 1.90735125 6.043384643554685 1.8886012500000002 Q 6.084634643554685 1.8698512500000002 6.142384643554685 1.8698512500000002 Q 6.188884643554685 1.8698512500000002 6.223759643554685 1.88222625 Q 6.258634643554685 1.89460125 6.281884643554685 1.9152262500000001 Q 6.305134643554685 1.9358512500000002 6.317134643554685 1.9594762500000003 Q 6.329134643554685 1.9831012500000003 6.329884643554685 2.0056012500000002 Q 6.329884643554685 2.01085125 6.326134643554685 2.01572625 Q 6.322384643554685 2.0206012500000003 6.314134643554685 2.0206012500000003 L 6.2743846435546855 2.0206012500000003 Q 6.269134643554685 2.0206012500000003 6.263509643554685 2.0176012500000002 Q 6.257884643554685 2.01460125 6.254884643554685 2.0063512500000003 Q 6.2503846435546855 1.9756012500000002 6.220384643554685 1.95460125 Q 6.190384643554685 1.9336012500000002 6.142384643554685 1.9336012500000002 Q 6.093634643554685 1.9336012500000002 6.0632596435546855 1.9523512500000002 Q 6.032884643554685 1.9711012500000002 6.032884643554685 2.01085125 Q 6.032884643554685 2.03635125 6.047134643554685 2.0532262500000003 Q 6.061384643554685 2.07010125 6.092134643554685 2.08285125 Q 6.122884643554685 2.09560125 6.172384643554685 2.10985125 Q 6.232384643554685 2.12635125 6.270634643554685 2.14472625 Q 6.308884643554685 2.16310125 6.327259643554685 2.19047625 Q 6.3456346435546855 2.2178512500000003 6.3456346435546855 2.26060125 Q 6.3456346435546855 2.30785125 6.3208846435546855 2.34122625 Q 6.296134643554685 2.37460125 6.2515096435546855 2.39222625 Q 6.206884643554685 2.40985125 6.146134643554685 2.40985125 Z M 6.650092163085936 2.5583512500000003 Q 6.6425921630859355 2.5583512500000003 6.637717163085935 2.55347625 Q 6.632842163085936 2.54860125 6.632842163085936 2.54110125 L 6.632842163085936 1.7476012500000002 Q 6.632842163085936 1.7401012500000002 6.637717163085935 1.7352262500000002 Q 6.6425921630859355 1.73035125 6.650092163085936 1.73035125 L 6.679342163085936 1.73035125 Q 6.686842163085935 1.73035125 6.691717163085936 1.7352262500000002 Q 6.696592163085936 1.7401012500000002 6.696592163085936 1.7476012500000002 L 6.696592163085936 2.54110125 Q 6.696592163085936 2.54860125 6.691717163085936 2.55347625 Q 6.686842163085935 2.5583512500000003 6.679342163085936 2.5583512500000003 L 6.650092163085936 2.5583512500000003 Z M 7.033316894531248 2.40235125 Q 7.025816894531249 2.40235125 7.020941894531249 2.39747625 Q 7.0160668945312485 2.3926012500000002 7.0160668945312485 2.38510125 L 7.0160668945312485 1.89535125 Q 7.0160668945312485 1.8871012500000002 7.020941894531249 1.88222625 Q 7.025816894531249 1.8773512500000002 7.033316894531248 1.8773512500000002 L 7.070816894531249 1.8773512500000002 Q 7.079816894531248 1.8773512500000002 7.0843168945312485 1.8818512500000002 Q 7.088816894531249 1.8863512500000001 7.090316894531249 1.8893512500000003 L 7.2485668945312485 2.19235125 L 7.408316894531248 1.8893512500000003 Q 7.409816894531248 1.8863512500000001 7.4139418945312485 1.8818512500000002 Q 7.418066894531249 1.8773512500000002 7.427066894531249 1.8773512500000002 L 7.463816894531249 1.8773512500000002 Q 7.472066894531249 1.8773512500000002 7.476941894531249 1.88222625 Q 7.481816894531248 1.8871012500000002 7.481816894531248 1.89535125 L 7.481816894531248 2.38510125 Q 7.481816894531248 2.3926012500000002 7.476941894531249 2.39747625 Q 7.472066894531249 2.40235125 7.463816894531249 2.40235125 L 7.427066894531249 2.40235125 Q 7.419566894531249 2.40235125 7.4146918945312486 2.39747625 Q 7.409816894531248 2.3926012500000002 7.409816894531248 2.38510125 L 7.409816894531248 2.01610125 L 7.284566894531249 2.26060125 Q 7.281566894531249 2.26810125 7.275566894531249 2.27222625 Q 7.269566894531248 2.2763512500000003 7.260566894531249 2.2763512500000003 L 7.237316894531249 2.2763512500000003 Q 7.227566894531249 2.2763512500000003 7.222316894531248 2.27222625 Q 7.217066894531249 2.26810125 7.213316894531249 2.26060125 L 7.087316894531249 2.01610125 L 7.087316894531249 2.38510125 Q 7.087316894531249 2.3926012500000002 7.082441894531248 2.39747625 Q 7.077566894531249 2.40235125 7.070066894531249 2.40235125 L 7.033316894531248 2.40235125 Z M 7.636275878906249 2.40235125 Q 7.628025878906249 2.40235125 7.623525878906249 2.39747625 Q 7.619025878906249 2.3926012500000002 7.619025878906249 2.38510125 L 7.619025878906249 1.89535125 Q 7.619025878906249 1.8871012500000002 7.623525878906249 1.88222625 Q 7.628025878906249 1.8773512500000002 7.636275878906249 1.8773512500000002 L 7.946025878906249 1.8773512500000002 Q 7.954275878906249 1.8773512500000002 7.958775878906249 1.88222625 Q 7.963275878906249 1.8871012500000002 7.963275878906249 1.89535125 L 7.963275878906249 1.9238512500000002 Q 7.963275878906249 1.93210125 7.958775878906249 1.9366012500000003 Q 7.954275878906249 1.9411012500000002 7.946025878906249 1.9411012500000002 L 7.691025878906249 1.9411012500000002 L 7.691025878906249 2.10535125 L 7.929525878906249 2.10535125 Q 7.937775878906249 2.10535125 7.942275878906249 2.11022625 Q 7.946775878906249 2.1151012500000004 7.946775878906249 2.1233512500000002 L 7.946775878906249 2.15110125 Q 7.946775878906249 2.1586012500000002 7.942275878906249 2.16347625 Q 7.937775878906249 2.16835125 7.929525878906249 2.16835125 L 7.691025878906249 2.16835125 L 7.691025878906249 2.33860125 L 7.952025878906249 2.33860125 Q 7.960275878906249 2.33860125 7.964775878906249 2.34310125 Q 7.969275878906249 2.3476012500000003 7.969275878906249 2.35585125 L 7.969275878906249 2.38510125 Q 7.969275878906249 2.3926012500000002 7.964775878906249 2.39747625 Q 7.960275878906249 2.40235125 7.952025878906249 2.40235125 L 7.636275878906249 2.40235125 Z M 8.098243652343749 2.40235125 Q 8.089993652343749 2.40235125 8.08549365234375 2.39747625 Q 8.08099365234375 2.3926012500000002 8.08099365234375 2.38510125 L 8.08099365234375 1.89535125 Q 8.08099365234375 1.8871012500000002 8.08549365234375 1.88222625 Q 8.089993652343749 1.8773512500000002 8.098243652343749 1.8773512500000002 L 8.281243652343749 1.8773512500000002 Q 8.36599365234375 1.8773512500000002 8.415493652343748 1.9171012500000002 Q 8.464993652343749 1.9568512500000002 8.464993652343749 2.03485125 Q 8.464993652343749 2.09260125 8.43611865234375 2.12897625 Q 8.40724365234375 2.16535125 8.35774365234375 2.17960125 L 8.473243652343749 2.37910125 Q 8.475493652343749 2.3836012500000003 8.475493652343749 2.38735125 Q 8.475493652343749 2.3933512500000003 8.470618652343749 2.39785125 Q 8.465743652343749 2.40235125 8.45974365234375 2.40235125 L 8.423743652343749 2.40235125 Q 8.41099365234375 2.40235125 8.40499365234375 2.3956012500000003 Q 8.39899365234375 2.38885125 8.39449365234375 2.3821012500000003 L 8.285743652343749 2.19160125 L 8.15449365234375 2.19160125 L 8.15449365234375 2.38510125 Q 8.15449365234375 2.3926012500000002 8.149618652343749 2.39747625 Q 8.144743652343749 2.40235125 8.136493652343749 2.40235125 L 8.098243652343749 2.40235125 Z M 8.15449365234375 2.12785125 L 8.278243652343749 2.12785125 Q 8.334493652343749 2.12785125 8.36224365234375 2.10422625 Q 8.38999365234375 2.08060125 8.38999365234375 2.03410125 Q 8.38999365234375 1.98835125 8.36261865234375 1.9643512500000002 Q 8.335243652343749 1.9403512500000002 8.278243652343749 1.9403512500000002 L 8.15449365234375 1.9403512500000002 L 8.15449365234375 2.12785125 Z M 8.596969848632812 2.40235125 Q 8.588719848632811 2.40235125 8.584219848632813 2.39747625 Q 8.579719848632813 2.3926012500000002 8.579719848632813 2.38510125 L 8.579719848632813 1.89535125 Q 8.579719848632813 1.8871012500000002 8.584219848632813 1.88222625 Q 8.588719848632811 1.8773512500000002 8.596969848632812 1.8773512500000002 L 8.631469848632813 1.8773512500000002 Q 8.640469848632812 1.8773512500000002 8.644969848632812 1.8814762500000002 Q 8.649469848632812 1.8856012500000001 8.650219848632812 1.8878512500000002 L 8.899219848632812 2.27035125 L 8.899219848632812 1.89535125 Q 8.899219848632812 1.8871012500000002 8.903719848632813 1.88222625 Q 8.908219848632813 1.8773512500000002 8.916469848632811 1.8773512500000002 L 8.952469848632813 1.8773512500000002 Q 8.960719848632813 1.8773512500000002 8.965594848632811 1.88222625 Q 8.970469848632812 1.8871012500000002 8.970469848632812 1.89535125 L 8.970469848632812 2.3843512500000004 Q 8.970469848632812 2.39185125 8.965594848632811 2.39710125 Q 8.960719848632813 2.40235125 8.953219848632813 2.40235125 L 8.917219848632811 2.40235125 Q 8.908969848632813 2.40235125 8.904844848632813 2.39785125 Q 8.900719848632813 2.3933512500000003 8.899219848632812 2.39185125 L 8.650969848632812 2.01310125 L 8.650969848632812 2.38510125 Q 8.650969848632812 2.3926012500000002 8.646094848632812 2.39747625 Q 8.641219848632812 2.40235125 8.632969848632811 2.40235125 L 8.596969848632812 2.40235125 Z M 9.307175903320312 2.5583512500000003 Q 9.299675903320313 2.5583512500000003 9.294800903320313 2.55347625 Q 9.289925903320313 2.54860125 9.289925903320313 2.54110125 L 9.289925903320313 1.7476012500000002 Q 9.289925903320313 1.7401012500000002 9.294800903320313 1.7352262500000002 Q 9.299675903320313 1.73035125 9.307175903320312 1.73035125 L 9.336425903320313 1.73035125 Q 9.343925903320313 1.73035125 9.348800903320313 1.7352262500000002 Q 9.353675903320312 1.7401012500000002 9.353675903320312 1.7476012500000002 L 9.353675903320312 2.54110125 Q 9.353675903320312 2.54860125 9.348800903320313 2.55347625 Q 9.343925903320313 2.5583512500000003 9.336425903320313 2.5583512500000003 L 9.307175903320312 2.5583512500000003 Z M 9.841900634765626 2.40985125 Q 9.776650634765625 2.40985125 9.732400634765625 2.38960125 Q 9.688150634765625 2.3693512500000002 9.664525634765626 2.3374762500000004 Q 9.640900634765625 2.30560125 9.639400634765625 2.27035125 Q 9.639400634765625 2.2643512500000003 9.644275634765625 2.25947625 Q 9.649150634765626 2.2546012500000003 9.655900634765626 2.2546012500000003 L 9.694150634765625 2.2546012500000003 Q 9.703150634765626 2.2546012500000003 9.707650634765626 2.25910125 Q 9.712150634765626 2.2636012500000002 9.713650634765626 2.26960125 Q 9.718150634765626 2.2876012500000003 9.732400634765625 2.30522625 Q 9.746650634765626 2.3228512500000003 9.773275634765625 2.3344762500000003 Q 9.799900634765626 2.3461012500000002 9.841900634765626 2.3461012500000002 Q 9.906400634765626 2.3461012500000002 9.936775634765626 2.3232262500000003 Q 9.967150634765625 2.3003512500000003 9.967150634765625 2.26210125 Q 9.967150634765625 2.23585125 9.951025634765626 2.2197262500000003 Q 9.934900634765626 2.20360125 9.901900634765626 2.19085125 Q 9.868900634765625 2.17810125 9.816400634765627 2.16310125 Q 9.761650634765626 2.1473512500000003 9.725650634765625 2.12860125 Q 9.689650634765625 2.10985125 9.672025634765626 2.08210125 Q 9.654400634765626 2.0543512500000003 9.654400634765626 2.01160125 Q 9.654400634765626 1.9711012500000002 9.676150634765627 1.9392262500000002 Q 9.697900634765626 1.90735125 9.739150634765625 1.8886012500000002 Q 9.780400634765625 1.8698512500000002 9.838150634765626 1.8698512500000002 Q 9.884650634765626 1.8698512500000002 9.919525634765625 1.88222625 Q 9.954400634765626 1.89460125 9.977650634765626 1.9152262500000001 Q 10.000900634765626 1.9358512500000002 10.012900634765625 1.9594762500000003 Q 10.024900634765626 1.9831012500000003 10.025650634765626 2.0056012500000002 Q 10.025650634765626 2.01085125 10.021900634765625 2.01572625 Q 10.018150634765625 2.0206012500000003 10.009900634765625 2.0206012500000003 L 9.970150634765625 2.0206012500000003 Q 9.964900634765625 2.0206012500000003 9.959275634765625 2.0176012500000002 Q 9.953650634765626 2.01460125 9.950650634765626 2.0063512500000003 Q 9.946150634765626 1.9756012500000002 9.916150634765625 1.95460125 Q 9.886150634765626 1.9336012500000002 9.838150634765626 1.9336012500000002 Q 9.789400634765625 1.9336012500000002 9.759025634765626 1.9523512500000002 Q 9.728650634765625 1.9711012500000002 9.728650634765625 2.01085125 Q 9.728650634765625 2.03635125 9.742900634765626 2.0532262500000003 Q 9.757150634765626 2.07010125 9.787900634765625 2.08285125 Q 9.818650634765625 2.09560125 9.868150634765625 2.10985125 Q 9.928150634765625 2.12635125 9.966400634765625 2.14472625 Q 10.004650634765627 2.16310125 10.023025634765625 2.19047625 Q 10.041400634765626 2.2178512500000003 10.041400634765626 2.26060125 Q 10.041400634765626 2.30785125 10.016650634765625 2.34122625 Q 9.991900634765626 2.37460125 9.947275634765626 2.39222625 Q 9.902650634765626 2.40985125 9.841900634765626 2.40985125 Z M 10.48536181640625 2.4511012500000002 Q 10.475611816406252 2.4511012500000002 10.469611816406251 2.44472625 Q 10.463611816406251 2.43835125 10.459861816406251 2.43385125 L 10.429111816406252 2.39185125 Q 10.38861181640625 2.40985125 10.335361816406252 2.40985125 Q 10.271611816406251 2.40985125 10.225861816406251 2.38772625 Q 10.180111816406251 2.36560125 10.15498681640625 2.31947625 Q 10.129861816406251 2.27335125 10.127611816406251 2.20360125 Q 10.126861816406251 2.1706012500000003 10.126861816406251 2.14022625 Q 10.126861816406251 2.10985125 10.127611816406251 2.0768512500000003 Q 10.129861816406251 2.0078512500000003 10.15611181640625 1.9617262500000001 Q 10.182361816406251 1.9156012500000001 10.228486816406251 1.8927262500000002 Q 10.274611816406251 1.8698512500000002 10.335361816406252 1.8698512500000002 Q 10.39686181640625 1.8698512500000002 10.44298681640625 1.8927262500000002 Q 10.48911181640625 1.9156012500000001 10.515361816406251 1.9617262500000001 Q 10.54161181640625 2.0078512500000003 10.54311181640625 2.0768512500000003 Q 10.54461181640625 2.10985125 10.54461181640625 2.14022625 Q 10.54461181640625 2.1706012500000003 10.54311181640625 2.20360125 Q 10.53936181640625 2.30635125 10.48911181640625 2.3573512500000002 L 10.53861181640625 2.4278512500000002 Q 10.53936181640625 2.4286012500000003 10.54011181640625 2.4304762500000003 Q 10.54086181640625 2.43235125 10.54086181640625 2.43610125 Q 10.54161181640625 2.4421012500000003 10.53711181640625 2.44660125 Q 10.53261181640625 2.4511012500000002 10.525861816406252 2.4511012500000002 L 10.48536181640625 2.4511012500000002 Z M 10.335361816406252 2.3461012500000002 Q 10.39236181640625 2.3461012500000002 10.429111816406252 2.3116012500000003 Q 10.465861816406251 2.2771012500000003 10.468861816406251 2.19985125 Q 10.470361816406252 2.16610125 10.470361816406252 2.13947625 Q 10.470361816406252 2.1128512500000003 10.468861816406251 2.07985125 Q 10.467361816406251 2.02810125 10.44973681640625 1.99585125 Q 10.432111816406252 1.9636012500000002 10.40286181640625 1.9486012500000003 Q 10.373611816406251 1.9336012500000002 10.335361816406252 1.9336012500000002 Q 10.29861181640625 1.9336012500000002 10.268986816406251 1.9486012500000003 Q 10.239361816406252 1.9636012500000002 10.222111816406251 1.99585125 Q 10.20486181640625 2.02810125 10.20261181640625 2.07985125 Q 10.20186181640625 2.1128512500000003 10.20186181640625 2.13947625 Q 10.20186181640625 2.16610125 10.20261181640625 2.19985125 Q 10.20561181640625 2.2771012500000003 10.242361816406252 2.3116012500000003 Q 10.279111816406251 2.3461012500000002 10.335361816406252 2.3461012500000002 Z M 10.679567504882813 2.40235125 Q 10.671317504882813 2.40235125 10.666817504882815 2.39747625 Q 10.662317504882814 2.3926012500000002 10.662317504882814 2.38510125 L 10.662317504882814 1.89460125 Q 10.662317504882814 1.8871012500000002 10.666817504882815 1.88222625 Q 10.671317504882813 1.8773512500000002 10.679567504882813 1.8773512500000002 L 10.719317504882813 1.8773512500000002 Q 10.726817504882813 1.8773512500000002 10.731692504882814 1.88222625 Q 10.736567504882814 1.8871012500000002 10.736567504882814 1.89460125 L 10.736567504882814 2.3371012500000004 L 10.985567504882814 2.3371012500000004 Q 10.993817504882815 2.3371012500000004 10.998692504882813 2.34197625 Q 11.003567504882813 2.3468512500000003 11.003567504882813 2.35510125 L 11.003567504882813 2.38510125 Q 11.003567504882813 2.3926012500000002 10.998692504882813 2.39747625 Q 10.993817504882815 2.40235125 10.985567504882814 2.40235125 L 10.679567504882813 2.40235125 Z" fill="#e9e9e5" fill-rule="nonzero"></path></g><g clip-path="url(&quot;#SvgjsClipPath1019&quot;)"><g clip-path="url(&quot;#SvgjsClipPath1008&quot;)"><path d=" M 14.974598395862385 2.4372662434317114 L 14.72707667410462 1.8330167877553847 C 14.709225196788838 1.789382664795835 14.666756470281113 1.760879038841025 14.619611886176965 1.7608899224055174 L 11.77889384335224 1.7608899224055174 C 11.731741128783668 1.760869970345775 11.689261286142122 1.7893751357818781 11.67140673203698 1.8330167877553847 L 11.423951980442027 2.4372662434317114 C 11.416133520443074 2.456363758342714 11.418341895311718 2.478101088901773 11.429841342652772 2.4952360269927474 C 11.441340789993827 2.512370965083722 11.460620143208532 2.522651772397204 11.481256116422564 2.5226532010186022 L 14.917271936494242 2.5226532010186022 C 14.937911862551722 2.522659212954466 14.957198075215896 2.512381444008529 14.968702814413078 2.495245296255714 C 14.980207553610263 2.4781091485028983 14.982418354635083 2.4563674169190888 14.974598395862385 2.437266243431712 Z M 13.48786078140829 2.4134248654701955 L 12.91068959489612 2.4134248654701955 C 12.891421080402202 2.413424866473473 12.873616238339888 2.4031452369435318 12.863981980798311 2.386458214068707 C 12.854347723256735 2.3697711911938817 12.8543477232475 2.349211930892579 12.86398198077409 2.3325249080091006 C 12.873616238300679 2.315837885125622 12.891421080353759 2.305558255579688 12.910689594847677 2.3055582565656585 L 13.48783845802069 2.3055582565656585 C 13.51762499849044 2.305558258116591 13.541771759678124 2.3297050205723955 13.541771759664744 2.3594915610421485 C 13.541771759651366 2.389278101511902 13.517624998441995 2.4134248639460174 13.487838457972243 2.4134248654701955 Z" fill="#d1fb00" transform="matrix(1,0,0,1,0,0)" fill-rule="nonzero"></path></g><g clip-path="url(&quot;#SvgjsClipPath1008&quot;)"><path d=" M 14.467701233528915 0.009017433373778638 C 14.528551056031912 0.008285243538218523 14.578497392697866 0.056972932520194364 14.579318171550995 0.11782162455770126 L 14.579318171550995 1.4107475878302553 C 14.578497392697866 1.4715962798677624 14.528551056031912 1.520283968849738 14.467701233528915 1.5195517790141782 L 13.695312022416129 1.5195517790141782 L 13.35079518151718 1.1750795848904378 C 13.333389508878765 1.157573567824751 13.32679128091689 1.132034243035705 13.333539202898965 1.1082880091780258 C 13.35155417669573 1.0440636230401215 13.344857160414403 0.979392769150129 13.309697824937448 0.9442334336731741 C 13.261836481913583 0.8963720906493067 13.134280645141953 0.8402064474365967 13.071864453400003 0.8470597274311521 L 13.209889958958108 0.985085232989255 L 13.15066601164359 1.1153868464362302 L 13.020364398196616 1.1746107937507453 L 12.882338892638511 1.0365852881926423 C 12.875485612643956 1.0990907734850066 12.931651255856668 1.226557316706221 12.979512598880532 1.2744186597300882 C 13.014671934357489 1.309577995207043 13.079342788247482 1.316275011488368 13.143567174385385 1.2982600376916043 C 13.167313408243066 1.2915121157095275 13.192852733032112 1.298110343671403 13.210358750097797 1.3155160163098176 L 13.54371389719454 1.6488711634065587 L 14.55049867815369 1.6488711634065587 C 14.620875459238668 1.6488588360668908 14.677920575679337 1.5918037257375655 14.677920574599694 1.521426943572949 L 14.677920574599694 0.007142268815007735 C 14.677920574599694 -0.06323451530471359 14.620875457283752 -0.120289624758917 14.550498676198588 -0.12030195101894449 L 12.980271594059083 -0.12030195101894449 L 13.109590978451465 0.009017433373778694 Z" fill="#d4d6c9" transform="matrix(1,0,0,1,0,0)" fill-rule="nonzero"></path></g><g clip-path="url(&quot;#SvgjsClipPath1008&quot;)"><path d=" M 11.848096344925928 1.6488711634065587 L 13.418256458857723 1.6488711634065587 L 13.28893707446534 1.5195517790141782 L 11.930871466163103 1.5195517790141782 C 11.87002164366011 1.5202839688497378 11.820075306994152 1.4715962798677624 11.819254528141023 1.4107475878302553 L 11.819254528141023 0.11782162455770126 C 11.820075306994152 0.056972932520194225 11.87002164366011 0.008285243538218523 11.930871466163103 0.009017433373778694 L 12.703260677275889 0.009017433373778694 L 13.047710548012024 0.35348962749751894 C 13.06512900295345 0.37098836287014253 13.071729158415167 0.39653514830539793 13.064966526630236 0.420281203209931 C 13.046951552833473 0.4845055893478353 13.053648569114799 0.5491764432378278 13.088807904591754 0.5843357787147826 C 13.136669247615622 0.6321971217386501 13.264225084387252 0.6883627649513602 13.326641276129198 0.6815094849568047 L 13.188615770571097 0.5434839793987017 L 13.247839717885611 0.41318236595172675 L 13.378141331332586 0.3539584186372118 L 13.51616683689069 0.49198392419531456 C 13.523020116885245 0.42947843890295023 13.466854473672537 0.3020118956817361 13.41899313064867 0.25415055265786873 C 13.383833795171713 0.21899121718091386 13.319185264669324 0.21229420089958906 13.254938555143815 0.2303091746963526 C 13.231192321286137 0.23705709667842928 13.20565299649709 0.23045886871655352 13.188146979431405 0.21305319607813922 L 12.85488112588508 -0.12030195101860208 L 11.848096344925928 -0.12030195101860208 C 11.77771956384095 -0.12028962367893443 11.72067444740028 -0.06323451334960922 11.72067444847992 0.00714226881500768 L 11.72067444847992 1.5213822967977402 C 11.720662605545131 1.5551864728413973 11.73408143316601 1.587610496435834 11.75797831608129 1.6115199390302788 C 11.781875198996568 1.6354293816247236 11.81429216732603 1.648865244272802 11.848096344925958 1.6488711634065587 Z" fill="#d1fb00" transform="matrix(1,0,0,1,0,0)" fill-rule="nonzero"></path></g></g></g><defs><clipPath id="SvgjsClipPath1019"><path d=" M 11.41930871582031 -0.12030195101860208 h 3.5599775914390013 v 2.6429551520372043 h -3.5599775914390013 Z"></path></clipPath><clipPath id="SvgjsClipPath1008"><path d=" M 11.41930871582031 -0.12030195101860208 L 14.979286307259311 -0.12030195101860208 L 14.979286307259311 2.5226532010186022 L 11.41930871582031 2.5226532010186022 Z"></path></clipPath></defs></svg>